<mxfile host="app.diagrams.net" modified="2020-06-17T14:08:58.102Z" agent="5.0 (Windows NT 10.0; WOW64) AppleWebKit/537.36 (KHTML, like Gecko) Chrome/81.0.4044.122 Safari/537.36" etag="bZTM8hF_dMsz4341GgK6" version="13.2.6" type="github">
  <diagram id="6aCclqbk74xueW5UWGmg" name="Page-1">
    <mxGraphModel dx="868" dy="527" grid="1" gridSize="10" guides="1" tooltips="1" connect="1" arrows="1" fold="1" page="1" pageScale="1" pageWidth="827" pageHeight="1169" math="0" shadow="0">
      <root>
        <mxCell id="0" />
        <mxCell id="1" parent="0" />
        <mxCell id="rmRKB70PbyiN-LGb4ZHU-1" value="Collection" style="rounded=0;whiteSpace=wrap;html=1;" vertex="1" parent="1">
          <mxGeometry x="190" y="210" width="120" height="50" as="geometry" />
        </mxCell>
        <mxCell id="rmRKB70PbyiN-LGb4ZHU-2" value="Set" style="rounded=0;whiteSpace=wrap;html=1;" vertex="1" parent="1">
          <mxGeometry x="70" y="300" width="120" height="40" as="geometry" />
        </mxCell>
        <mxCell id="rmRKB70PbyiN-LGb4ZHU-3" value="List" style="rounded=0;whiteSpace=wrap;html=1;" vertex="1" parent="1">
          <mxGeometry x="260" y="300" width="120" height="40" as="geometry" />
        </mxCell>
        <mxCell id="rmRKB70PbyiN-LGb4ZHU-4" value="CopyOnWriteArraySet" style="rounded=0;whiteSpace=wrap;html=1;" vertex="1" parent="1">
          <mxGeometry x="20" y="410" width="120" height="40" as="geometry" />
        </mxCell>
        <mxCell id="rmRKB70PbyiN-LGb4ZHU-5" value="OnWriteArrayList" style="rounded=0;whiteSpace=wrap;html=1;" vertex="1" parent="1">
          <mxGeometry x="220" y="410" width="120" height="40" as="geometry" />
        </mxCell>
        <mxCell id="rmRKB70PbyiN-LGb4ZHU-6" value="Vector" style="rounded=0;whiteSpace=wrap;html=1;" vertex="1" parent="1">
          <mxGeometry x="370" y="410" width="120" height="40" as="geometry" />
        </mxCell>
        <mxCell id="rmRKB70PbyiN-LGb4ZHU-8" value="Map" style="rounded=0;whiteSpace=wrap;html=1;" vertex="1" parent="1">
          <mxGeometry x="294" y="545" width="120" height="40" as="geometry" />
        </mxCell>
        <mxCell id="rmRKB70PbyiN-LGb4ZHU-9" value="ConcurrentMap" style="rounded=0;whiteSpace=wrap;html=1;" vertex="1" parent="1">
          <mxGeometry x="130" y="640" width="120" height="40" as="geometry" />
        </mxCell>
        <mxCell id="rmRKB70PbyiN-LGb4ZHU-11" value="ConcurrentHashMap" style="rounded=0;whiteSpace=wrap;html=1;" vertex="1" parent="1">
          <mxGeometry x="30" y="730" width="120" height="50" as="geometry" />
        </mxCell>
        <mxCell id="rmRKB70PbyiN-LGb4ZHU-12" value="Hashtable" style="rounded=0;whiteSpace=wrap;html=1;" vertex="1" parent="1">
          <mxGeometry x="320" y="730" width="120" height="40" as="geometry" />
        </mxCell>
      </root>
    </mxGraphModel>
  </diagram>
</mxfile>
